<?xml version="1.0" encoding="UTF-8" standalone="no"?>
<!-- Uploaded to: SVG Repo, www.svgrepo.com, Transformed by: SVG Repo Mixer Tools -->

<svg
   version="1.1"
   id="Layer_1"
   viewBox="0 0 488.331 488.331"
   xml:space="preserve"
   width="800px"
   height="800px"
   fill="#000000"
   sodipodi:docname="jamspot.svg"
   inkscape:version="1.2.2 (732a01da63, 2022-12-09)"
   xmlns:inkscape="http://www.inkscape.org/namespaces/inkscape"
   xmlns:sodipodi="http://sodipodi.sourceforge.net/DTD/sodipodi-0.dtd"
   xmlns="http://www.w3.org/2000/svg"
   xmlns:svg="http://www.w3.org/2000/svg"><defs
   id="defs76" /><sodipodi:namedview
   id="namedview74"
   pagecolor="#505050"
   bordercolor="#eeeeee"
   borderopacity="1"
   inkscape:showpageshadow="0"
   inkscape:pageopacity="0"
   inkscape:pagecheckerboard="0"
   inkscape:deskcolor="#505050"
   showgrid="false"
   inkscape:zoom="0.71948115"
   inkscape:cx="576.80455"
   inkscape:cy="428.78121"
   inkscape:window-width="1920"
   inkscape:window-height="1001"
   inkscape:window-x="-9"
   inkscape:window-y="-9"
   inkscape:window-maximized="1"
   inkscape:current-layer="Layer_1" />

<g
   id="SVGRepo_bgCarrier"
   stroke-width="0" />

<g
   id="SVGRepo_tracerCarrier"
   stroke-linecap="round"
   stroke-linejoin="round" />



<g
   id="g306"
   transform="matrix(1.4734971,0,0,1.4678806,-13.089445,-27.140733)"><g
     id="SVGRepo_iconCarrier"
     transform="matrix(0.31849173,0,0,0.32242891,173.18842,39.874938)"> <g
   id="g46"> <path
   style="fill:#663333"
   d="m 488.166,80.331 v 64 c 0,12.8 -10.4,24 -24,24 -13.6,0 -24,-11.2 -24,-24 0,-12.8 10.4,-24 24,-24 2.4,0 5.6,0.8 8,1.6 v -31.2 l -56,12.8 v 64.8 c 0,12.8 -10.4,24 -24,24 -13.6,0 -24,-11.2 -24,-24 0,-12.8 10.4,-24 24,-24 2.4,0 5.6,0.8 8,1.6 v -49.6 c 0,-4 2.4,-7.2 6.4,-8 l 72,-16 c 2.4,-0.8 4.8,0 7.2,1.6 1.6,1.6 2.4,4 2.4,6.4 z m -16,64 c 0,-4 -4,-8 -8,-8 -4,0 -8,4 -8,8 0,4 4,8 8,8 4,0 8,-4 8,-8 z m -72,24 c 0,-4 -4,-8 -8,-8 -4,0 -8,4 -8,8 0,4 4,8 8,8 4,0 8,-4 8,-8 z"
   id="path42" /> <path
   style="fill:#663333"
   d="m 440.166,424.331 c 4,0 8,4 8,8 0,31.2 -24.8,56 -56,56 h -240 c -31.2,0 -56,-24.8 -56,-56 v -30.4 l -24,4.8 v 41.6 c 0,13.6 -11.2,24 -24,24 -12.8,0 -24,-10.4 -24,-24 0,-13.6 10.4,-24 24,-24 2.4,0 5.6,0.8 8,1.6 v -49.6 c 0,-4 2.4,-7.2 6.4,-8 l 33.6,-6.4 v -169.6 h -88 c -4,0 -8,-4 -8,-8 0,-31.2 24.8,-56 56,-56 h 240 c 31.2,0 56,24.8 56,56 v 240 z m -8.8,16 h -224 c -1.6,12.8 -8,24 -16,32 h 200.8 c 19.2,0 35.2,-13.6 39.2,-32 z m -95.2,-16 v -240 c 0,-22.4 -17.6,-40 -40,-40 h -186.4 -14.4 c 10.4,10.4 16.8,24 16.8,40 v 248 c 0,22.4 17.6,40 40,40 20,0 36,-14.4 39.2,-32.8 0,-2.4 0.8,-4.8 0.8,-7.2 0,-4 4,-8 8,-8 z m -240,-38.4 v -8 l -24,4.8 v 8 z m -79.2,-209.6 h 78.4 c -4,-18.4 -20,-32 -39.2,-32 -19.2,0 -35.2,13.6 -39.2,32 z m 39.2,272 c 0,-4 -3.2,-8 -8,-8 -4.8,0 -8,4 -8,8 0,4 3.2,8 8,8 4.8,0 8,-4 8,-8 z"
   id="path44" /> </g> <path
   style="fill:#fe6865"
   d="m 207.366,440.331 h 224 c -4,18.4 -20,32 -39.2,32 h -200.8 c 8.8,-8 14.4,-19.2 16,-32 z"
   id="path48" /> <path
   style="fill:#fe6865"
   d="m 336.166,184.331 v 240 h -136 c -4,0 -8,4 -8,8 0,2.4 0,4.8 -0.8,7.2 -0.8,6.4 -4,12 -7.2,16.8 -6.4,4.8 -15.2,8 -24,8 -22.4,0 -40,-17.6 -40,-40 v -248 c 0,-12 -4,-23.2 -10.4,-32 h 186.4 c 22.4,0 40,17.6 40,40 z m -24,184 v -16 h -176 v 16 z m 0,-24 v -16 h -176 v 16 z m 0,-24 v -16 h -176 v 16 z m 0,-56 v -16 h -176 v 16 z m 0,-24 v -16 h -176 v 16 z m 0,-24 v -16 h -176 v 16 z"
   id="path50" /> <g
   id="g66"> <path
   id="rect52"
   style="fill:#663333"
   d="m 136.166,352.33099 h 176 v 16 h -176 z" /> <path
   id="rect54"
   style="fill:#663333"
   d="m 136.166,328.33099 h 176 v 16 h -176 z" /> <path
   id="rect56"
   style="fill:#663333"
   d="m 136.166,304.33099 h 176 v 16 h -176 z" /> <path
   id="rect58"
   style="fill:#663333"
   d="m 136.166,248.33099 h 176 v 16 h -176 z" /> <path
   id="rect60"
   style="fill:#663333"
   d="m 136.166,224.33099 h 176 v 16 h -176 z" /> <path
   id="rect62"
   style="fill:#663333"
   d="m 136.166,200.33099 h 176 v 16 h -176 z" /> <path
   style="fill:#663333"
   d="m 224.166,8.331 v 24 c 0,3.2 -2.4,6.4 -5.6,7.2 l -42.4,14.4 v 42.4 c 0,12.8 -11.2,24 -24,24 -12.8,0 -24,-11.2 -24,-24 0,-12.8 11.2,-24 24,-24 3.2,0 5.6,0.8 8,1.6 v -49.6 c 0,-3.2 2.4,-6.4 5.6,-8 l 48,-16 c 2.4,-0.8 4.8,0 7.2,0.8 2.4,2.4 3.2,4.8 3.2,7.2 z m -16,18.4 v -7.2 l -32,10.4 v 7.2 z m -48,69.6 c 0,-4.8 -4,-8 -8,-8 -4,0 -8,3.2 -8,8 0,4.8 4,8 8,8 4,0 8,-3.2 8,-8 z"
   id="path64" /> </g> <path
   style="fill:#6a973a"
   d="m 184.166,456.331 c 4,-4.8 6.4,-10.4 7.2,-16.8 -3.2,18.4 -19.2,32.8 -39.2,32.8 -22.4,0 -40,-17.6 -40,-40 v -248 c 0,-16 -6.4,-29.6 -16.8,-40 h 14.4 c 6.4,8.8 10.4,20 10.4,32 v 248 c 0,22.4 17.6,40 40,40 8.8,0 16.8,-3.2 24,-8 z"
   id="path68" /> <path
   style="fill:#fe6865"
   d="m 95.366,176.331 h -78.4 c 4,-18.4 20,-32 39.2,-32 19.2,0 35.2,13.6 39.2,32 z"
   id="path70" /> </g><g
     style="fill:#000000;stroke:#000000;stroke-width:0.01024"
     id="g117"
     transform="matrix(0.24644432,0,0,0.24730135,-19.132569,78.061265)"><g
       id="SVGRepo_bgCarrier-5"
       stroke-width="0" /><g
       id="SVGRepo_tracerCarrier-0"
       stroke-linecap="round"
       stroke-linejoin="round"
       stroke="#cccccc"
       stroke-width="2.048" /><g
       id="SVGRepo_iconCarrier-9"><path
         d="m 855.1,262.6 v 21.6 c 0,10.7 -8.7,19.4 -19.4,19.4 H 804 c -8.8,37.3 -42.4,65.2 -82.4,65.2 H 497.1 v 125.9 c 0,15.1 -1.1,30.2 -3.3,45.1 0,0.2 0,0.3 -0.1,0.4 -2.9,19.4 -8.3,38.4 -14.1,57 -7.5,24.6 -22.2,49 -23.3,51 h 57.1 l 45.9,-45.8 c -4.1,-29.3 5.7,-59.3 26.9,-80.5 24,-24 59.2,-33.4 92,-24.7 6.7,1.8 11.9,7 13.7,13.7 8.7,32.8 -0.7,68 -24.7,92 -18,18 -42.5,27.9 -67.5,27.9 -4.3,0 -8.7,-0.3 -13.1,-0.9 l -18.4,18.4 h 151.2 c 10.7,0 19.4,8.7 19.4,19.4 0,10.7 -8.7,19.4 -19.4,19.4 H 430.1 c -1.2,1.5 -6.9,8.4 -8.5,10.3 l -0.4,0.5 v 137.9 c 0,10.7 -8.7,19.4 -19.4,19.4 -19.4,0 -37.3,-6.1 -52.1,-16.5 v 49.2 c 0,10.7 -8.7,19.4 -19.4,19.4 -19.3,0 -37.3,-6.1 -52,-16.5 v 49.9 c 0,10.7 -8.7,19.4 -19.4,19.4 -50.1,0 -90.9,-40.8 -90.9,-90.9 V 373.8 c 0,-43.1 8.7,-84.8 25.8,-124 0,0 26.7,-59.3 70.2,-100.1 C 306.5,109.8 353.6,90 353.6,90 392.8,72.9 434.5,64.2 477.5,64.2 h 179.1 c 47.6,0 93.6,17.1 129.5,48.1 1.9,1.6 9.1,8.3 10.8,10 37.6,37.4 58.2,87.2 58.2,140.3 z"
         fill="#663333"
         id="path80" /><path
         d="m 806.3,206.7 c 12.3,34 10,58 10,58 h -92.7 c 1.4,-42 20.7,-81 52.7,-107.8 0.1,0.1 20.2,22.7 30,49.8 z"
         fill="#fe6865"
         id="path82" /><path
         d="m 497.1,303.5 h 266 c -7.3,15.6 -23.2,26.4 -41.5,26.4 H 497.1 Z"
         fill="#ffcc66"
         id="path84" /><path
         d="m 656.4,532.7 c 0.7,15.7 -5.1,31.3 -16.5,42.6 -11.3,11.3 -26.9,17.2 -42.6,16.4 -0.7,-15.7 5.1,-31.3 16.5,-42.6 11.3,-11.3 26.9,-17.1 42.6,-16.4 z"
         fill="#6a973a"
         id="path86" /><path
         d="m 458.3,417.5 v 77.1 c 0,13.3 -1,26.7 -2.9,39.8 0,0.2 0,0.3 -0.1,0.4 -2.5,16.8 -6.6,33.5 -12.2,49.5 0,0 -10.4,28.5 -26.4,54.6 -15.1,24.7 -37.8,47.2 -37.8,47.2 -9.5,9.5 -19.6,18.2 -30.3,26.2 -2.7,-7.5 -9.8,-12.9 -18.3,-12.9 -10.7,0 -19.4,8.7 -19.4,19.4 V 864.7 C 291.8,857 278.3,838.2 278.3,816.4 V 704.8 c 53,-31.2 88.6,-88.9 88.6,-154.7 v -69.7 c 0,-54.8 -44.6,-99.5 -99.5,-99.5 -10.7,0 -19.4,8.7 -19.4,19.4 0,10.7 8.7,19.4 19.4,19.4 16.2,0 31.4,6.3 42.9,17.8 11.4,11.5 17.8,26.7 17.8,42.9 v 69.7 c 0,71 -52.9,129.9 -121.3,139.4 V 373.8 c 0,-37.7 7.6,-74.2 22.5,-108.4 0,0 12.5,-29.2 38.9,-63.3 27.6,-35.7 57.3,-52.4 58.2,-52.9 -16.5,26.9 -26,58.5 -26,92.3 0.1,91 69.3,166.3 157.9,176 z"
         fill="#fe6865"
         id="path88" /><path
         d="m 458.3,104.4 v 274 c -67.1,-9.5 -119,-67.3 -119,-137 0,-69.8 51.8,-127.6 119,-137 z"
         fill="#ffffff"
         id="path90" /><path
         d="m 403.6,188.1 c 12.4,0 22.4,10 22.4,22.4 0,12.4 -10,22.4 -22.4,22.4 -12.4,0 -22.4,-10 -22.4,-22.4 0,-12.4 10,-22.4 22.4,-22.4 z"
         fill="#663333"
         id="path92" /><path
         d="m 382.4,735.1 v 77.3 c -19.1,-7.7 -32.7,-26.5 -32.7,-48.3 v -5.8 c 11.5,-7 22.4,-14.8 32.7,-23.2 z M 239.5,721.9 V 917.5 C 220.4,909.8 206.9,891 206.9,869.2 V 728.6 c 11.2,-1.3 22.1,-3.5 32.6,-6.7 z"
         fill="#fe6865"
         id="path94" /><path
         d="m 747.1,131 c -26.5,-18.2 -58,-28.1 -90.4,-28.1 H 497.1 v 161.8 h 187.7 c 1.5,-51.6 24.1,-99.8 62.3,-133.7 z"
         fill="#ffcc66"
         id="path96" /></g></g></g></svg>
