<?xml version="1.0" encoding="UTF-8" standalone="no"?>
<!-- Uploaded to: SVG Repo, www.svgrepo.com, Transformed by: SVG Repo Mixer Tools -->

<svg
   version="1.1"
   id="Layer_1"
   viewBox="0 0 366.766 366.766"
   xml:space="preserve"
   width="800px"
   height="800px"
   fill="#000000"
   sodipodi:docname="toucan_heart.svg"
   inkscape:version="1.2.2 (732a01da63, 2022-12-09)"
   xmlns:inkscape="http://www.inkscape.org/namespaces/inkscape"
   xmlns:sodipodi="http://sodipodi.sourceforge.net/DTD/sodipodi-0.dtd"
   xmlns="http://www.w3.org/2000/svg"
   xmlns:svg="http://www.w3.org/2000/svg"><defs
   id="defs104" /><sodipodi:namedview
   id="namedview102"
   pagecolor="#505050"
   bordercolor="#eeeeee"
   borderopacity="1"
   inkscape:showpageshadow="0"
   inkscape:pageopacity="0"
   inkscape:pagecheckerboard="0"
   inkscape:deskcolor="#505050"
   showgrid="false"
   inkscape:zoom="0.70710678"
   inkscape:cx="190.91883"
   inkscape:cy="340.11836"
   inkscape:window-width="1920"
   inkscape:window-height="1001"
   inkscape:window-x="-9"
   inkscape:window-y="-9"
   inkscape:window-maximized="1"
   inkscape:current-layer="SVGRepo_iconCarrier" />

<g
   id="SVGRepo_bgCarrier"
   stroke-width="0" />

<g
   id="SVGRepo_tracerCarrier"
   stroke-linecap="round"
   stroke-linejoin="round" />

<g
   id="SVGRepo_iconCarrier"> <g
   id="g98"> <g
   id="g64"> <path
   style="fill:#B36F0F;"
   d="M205.791,279.735c-0.365-1.787-1.945-3.131-3.841-3.131h-5.485c-2.164,0-3.919,1.756-3.919,3.92 c0,2.167,1.755,3.922,3.919,3.922h1.564v6.97c0,2.166,1.756,3.921,3.921,3.921c2.166,0,3.921-1.755,3.921-3.921v-10.892 C205.871,280.255,205.843,279.991,205.791,279.735z"
   id="path56" /> <g
   id="g60"> <path
   style="fill:#B36F0F;"
   d="M197.95,279.735c-0.365-1.787-1.946-3.131-3.841-3.131h-5.484c-2.166,0-3.921,1.756-3.921,3.92 c0,2.167,1.755,3.922,3.921,3.922h1.563v6.97c0,2.166,1.755,3.921,3.921,3.921s3.92-1.755,3.92-3.921v-10.892 C198.029,280.255,198.003,279.991,197.95,279.735z"
   id="path58" /> </g> <path
   style="fill:#B36F0F;"
   d="M190.109,279.735c-0.366-1.787-1.946-3.131-3.842-3.131h-5.483c-2.166,0-3.921,1.756-3.921,3.92 c0,2.167,1.755,3.922,3.921,3.922h1.564v6.97c0,2.166,1.755,3.921,3.919,3.921c2.166,0,3.921-1.755,3.921-3.921v-10.892 C190.188,280.255,190.16,279.991,190.109,279.735z"
   id="path62" /> </g> <path
   style="fill:#2D3740;"
   d="M183.535,217.635c-19.753,0-35.763-16.01-35.763-35.764c0-19.751,16.011-35.762,35.763-35.761 h102.684c0,39.5-32.023,71.523-71.526,71.525L183.535,217.635L183.535,217.635z"
   id="path66" /> <path
   style="fill:#333E48;"
   d="M77.149,340.034c71.61,0,129.663-58.052,129.663-129.663V26.731 c-71.61,0-129.662,58.052-129.662,129.663"
   id="path68" /> <path
   style="fill:#333E48;"
   d="M77.149,340.034c71.61,0,129.663-58.052,129.663-129.663V26.731 c-71.61,0-129.662,58.052-129.662,129.663"
   id="path70" /> <path
   style="fill:#333E48;"
   d="M77.149,340.034H0l77.149-77.148l0.001-106.491c0-71.611,58.052-129.663,129.662-129.663v183.64 C206.811,281.982,148.759,340.034,77.149,340.034"
   id="path72" /> <path
   style="fill:#FFFFFF;"
   d="M140.582,106.708c0,24.53,13.344,45.928,33.16,57.374v48.189c0,19.131,9.347,36.069,23.714,46.528 l0,0c6.302-15.125,9.355-30.761,9.355-48.429V40.479C170.234,40.479,140.582,70.13,140.582,106.708z"
   id="path74" /> <path
   style="fill:#2D3740;"
   d="M107.085,219.146c19.753,0,35.764-16.011,35.764-35.764c0-19.751-16.011-35.763-35.764-35.762H4.403 c0,39.501,32.022,71.523,71.525,71.525h31.157V219.146z"
   id="path76" /> <circle
   style="fill:#2D3740;"
   cx="176.863"
   cy="81.613"
   r="8.256"
   id="circle78" /> <g
   id="g86"> <path
   style="fill:#ED9900;"
   d="M366.766,106.708c0-44.17-35.807-79.977-79.977-79.977h-79.978v79.977H366.766z"
   id="path80" /> <path
   style="fill:#333E48;"
   d="M343.61,50.439c-16.964,9.549-28.429,27.715-28.429,48.568c0,2.614,0.193,5.182,0.541,7.7h51.043 C366.766,84.764,357.922,64.89,343.61,50.439z"
   id="path82" /> <rect
   x="206.811"
   y="106.708"
   style="fill:#B36F0F;"
   width="159.954"
   height="13.447"
   id="rect84" /> </g> <g
   id="g96"> <path
   style="fill:#FFB648;"
   d="M190.108,279.735c-0.365-1.787-1.946-3.131-3.841-3.131h-5.485c-2.164,0-3.919,1.756-3.919,3.92 c0,2.167,1.755,3.922,3.919,3.922h1.564v6.97c0,2.166,1.756,3.921,3.921,3.921c2.166,0,3.921-1.755,3.921-3.921v-10.892 C190.188,280.255,190.16,279.991,190.108,279.735z"
   id="path88" /> <g
   id="g92"> <path
   style="fill:#FFB648;"
   d="M182.268,279.735c-0.366-1.787-1.947-3.131-3.841-3.131h-5.485c-2.166,0-3.921,1.756-3.921,3.92 c0,2.167,1.755,3.922,3.921,3.922h1.564v6.97c0,2.166,1.755,3.921,3.921,3.921c2.165,0,3.919-1.755,3.919-3.921v-10.892 C182.346,280.255,182.32,279.991,182.268,279.735z"
   id="path90" /> </g> <path
   style="fill:#FFB648;"
   d="M174.426,279.735c-0.366-1.787-1.946-3.131-3.842-3.131h-5.483c-2.166,0-3.921,1.756-3.921,3.92 c0,2.167,1.755,3.922,3.921,3.922h1.563v6.97c0,2.166,1.755,3.921,3.92,3.921c2.166,0,3.921-1.755,3.921-3.921v-10.892 C174.506,280.255,174.477,279.991,174.426,279.735z"
   id="path94" /> </g> <circle
   style="fill:#2D3740;"
   cx="176.863"
   cy="81.613"
   r="8.256"
   id="circle264" /></g> <g
   id="g814"
   transform="matrix(1.8608391,0,0,1.9873757,226.3785,112.454)">
	<path
   fill="#f76d57"
   d="m 58.714,29.977 c 0,0 -0.612,0.75 -1.823,1.961 C 55.68,33.149 33.414,55.414 33.414,55.414 33.023,55.805 32.512,56 32,56 31.488,56 30.977,55.805 30.586,55.414 30.586,55.414 8.32,33.148 7.109,31.937 5.898,30.726 5.286,29.976 5.286,29.976 3.245,27.545 2,24.424 2,21 2,13.268 8.268,7 16,7 c 3.866,0 7.366,1.566 9.899,4.101 l 0.009,-0.009 4.678,4.677 c 0.781,0.781 2.047,0.781 2.828,0 l 4.678,-4.677 0.009,0.009 C 40.634,8.566 44.134,7 48,7 c 7.732,0 14,6.268 14,14 0,3.424 -1.245,6.545 -3.286,8.977 z"
   id="path804" />
	<path
   fill="#f76d57"
   d="m 58.714,29.977 c 0,0 -0.612,0.75 -1.823,1.961 C 55.68,33.149 33.414,55.414 33.414,55.414 33.023,55.805 32.512,56 32,56 31.488,56 30.977,55.805 30.586,55.414 30.586,55.414 8.32,33.148 7.109,31.937 5.898,30.726 5.286,29.976 5.286,29.976 3.245,27.545 2,24.424 2,21 2,13.268 8.268,7 16,7 c 3.866,0 7.366,1.566 9.899,4.101 l 0.009,-0.009 4.678,4.677 c 0.781,0.781 2.047,0.781 2.828,0 l 4.678,-4.677 0.009,0.009 C 40.634,8.566 44.134,7 48,7 c 7.732,0 14,6.268 14,14 0,3.424 -1.245,6.545 -3.286,8.977 z"
   id="path806" />
	<g
   id="g812">
		<path
   fill="#394240"
   d="M 48,5 C 43.582,5 39.582,6.791 36.687,9.687 l -3.979,3.961 c -0.391,0.391 -1.023,0.391 -1.414,0 0,0 -3.971,-3.97 -3.979,-3.961 C 24.418,6.791 20.418,5 16,5 7.163,5 0,12.163 0,21 c 0,3.338 1.024,6.436 2.773,9 0,0 0.734,1.164 1.602,2.031 0.868,0.867 24.797,24.797 24.797,24.797 C 29.953,57.609 30.977,58 32,58 c 1.023,0 2.047,-0.391 2.828,-1.172 0,0 23.93,-23.93 24.797,-24.797 C 60.492,31.164 61.227,30 61.227,30 62.976,27.436 64,24.338 64,21 64,12.163 56.837,5 48,5 Z m 10.714,24.977 c 0,0 -0.612,0.75 -1.823,1.961 C 55.68,33.149 33.414,55.414 33.414,55.414 33.023,55.805 32.512,56 32,56 31.488,56 30.977,55.805 30.586,55.414 30.586,55.414 8.32,33.148 7.109,31.937 5.898,30.726 5.286,29.976 5.286,29.976 3.245,27.545 2,24.424 2,21 2,13.268 8.268,7 16,7 c 3.866,0 7.366,1.566 9.899,4.101 l 0.009,-0.009 4.678,4.677 c 0.781,0.781 2.047,0.781 2.828,0 l 4.678,-4.677 0.009,0.009 C 40.634,8.566 44.134,7 48,7 c 7.732,0 14,6.268 14,14 0,3.424 -1.245,6.545 -3.286,8.977 z"
   id="path808" />
		<path
   fill="#394240"
   d="m 48,11 c -0.553,0 -1,0.447 -1,1 0,0.553 0.447,1 1,1 4.418,0 8,3.582 8,8 0,0.553 0.447,1 1,1 0.553,0 1,-0.447 1,-1 0,-5.522 -4.478,-10 -10,-10 z"
   id="path810" />
	</g>
</g></g>

</svg>
