<?xml version="1.0" encoding="UTF-8" standalone="no"?>
<!-- Uploaded to: SVG Repo, www.svgrepo.com, Transformed by: SVG Repo Mixer Tools -->

<svg
   version="1.1"
   id="Layer_1"
   viewBox="0 0 366.766 366.766"
   xml:space="preserve"
   width="800px"
   height="800px"
   fill="#000000"
   sodipodi:docname="toucan_question.svg"
   inkscape:version="1.2.2 (732a01da63, 2022-12-09)"
   xmlns:inkscape="http://www.inkscape.org/namespaces/inkscape"
   xmlns:sodipodi="http://sodipodi.sourceforge.net/DTD/sodipodi-0.dtd"
   xmlns="http://www.w3.org/2000/svg"
   xmlns:svg="http://www.w3.org/2000/svg"><defs
   id="defs104" /><sodipodi:namedview
   id="namedview102"
   pagecolor="#505050"
   bordercolor="#eeeeee"
   borderopacity="1"
   inkscape:showpageshadow="0"
   inkscape:pageopacity="0"
   inkscape:pagecheckerboard="0"
   inkscape:deskcolor="#505050"
   showgrid="false"
   inkscape:zoom="0.70710678"
   inkscape:cx="190.91883"
   inkscape:cy="340.11836"
   inkscape:window-width="1920"
   inkscape:window-height="1001"
   inkscape:window-x="-9"
   inkscape:window-y="-9"
   inkscape:window-maximized="1"
   inkscape:current-layer="SVGRepo_iconCarrier" />

<g
   id="SVGRepo_bgCarrier"
   stroke-width="0" />

<g
   id="SVGRepo_tracerCarrier"
   stroke-linecap="round"
   stroke-linejoin="round" />

<g
   id="SVGRepo_iconCarrier"> <g
   id="g98"> <g
   id="g64"> <path
   style="fill:#B36F0F;"
   d="M205.791,279.735c-0.365-1.787-1.945-3.131-3.841-3.131h-5.485c-2.164,0-3.919,1.756-3.919,3.92 c0,2.167,1.755,3.922,3.919,3.922h1.564v6.97c0,2.166,1.756,3.921,3.921,3.921c2.166,0,3.921-1.755,3.921-3.921v-10.892 C205.871,280.255,205.843,279.991,205.791,279.735z"
   id="path56" /> <g
   id="g60"> <path
   style="fill:#B36F0F;"
   d="M197.95,279.735c-0.365-1.787-1.946-3.131-3.841-3.131h-5.484c-2.166,0-3.921,1.756-3.921,3.92 c0,2.167,1.755,3.922,3.921,3.922h1.563v6.97c0,2.166,1.755,3.921,3.921,3.921s3.92-1.755,3.92-3.921v-10.892 C198.029,280.255,198.003,279.991,197.95,279.735z"
   id="path58" /> </g> <path
   style="fill:#B36F0F;"
   d="M190.109,279.735c-0.366-1.787-1.946-3.131-3.842-3.131h-5.483c-2.166,0-3.921,1.756-3.921,3.92 c0,2.167,1.755,3.922,3.921,3.922h1.564v6.97c0,2.166,1.755,3.921,3.919,3.921c2.166,0,3.921-1.755,3.921-3.921v-10.892 C190.188,280.255,190.16,279.991,190.109,279.735z"
   id="path62" /> </g> <path
   style="fill:#2D3740;"
   d="M183.535,217.635c-19.753,0-35.763-16.01-35.763-35.764c0-19.751,16.011-35.762,35.763-35.761 h102.684c0,39.5-32.023,71.523-71.526,71.525L183.535,217.635L183.535,217.635z"
   id="path66" /> <path
   style="fill:#333E48;"
   d="M77.149,340.034c71.61,0,129.663-58.052,129.663-129.663V26.731 c-71.61,0-129.662,58.052-129.662,129.663"
   id="path68" /> <path
   style="fill:#333E48;"
   d="M77.149,340.034c71.61,0,129.663-58.052,129.663-129.663V26.731 c-71.61,0-129.662,58.052-129.662,129.663"
   id="path70" /> <path
   style="fill:#333E48;"
   d="M77.149,340.034H0l77.149-77.148l0.001-106.491c0-71.611,58.052-129.663,129.662-129.663v183.64 C206.811,281.982,148.759,340.034,77.149,340.034"
   id="path72" /> <path
   style="fill:#FFFFFF;"
   d="M140.582,106.708c0,24.53,13.344,45.928,33.16,57.374v48.189c0,19.131,9.347,36.069,23.714,46.528 l0,0c6.302-15.125,9.355-30.761,9.355-48.429V40.479C170.234,40.479,140.582,70.13,140.582,106.708z"
   id="path74" /> <path
   style="fill:#2D3740;"
   d="M107.085,219.146c19.753,0,35.764-16.011,35.764-35.764c0-19.751-16.011-35.763-35.764-35.762H4.403 c0,39.501,32.022,71.523,71.525,71.525h31.157V219.146z"
   id="path76" /> <circle
   style="fill:#2D3740;"
   cx="176.863"
   cy="81.613"
   r="8.256"
   id="circle78" /> <g
   id="g86"> <path
   style="fill:#ED9900;"
   d="M366.766,106.708c0-44.17-35.807-79.977-79.977-79.977h-79.978v79.977H366.766z"
   id="path80" /> <path
   style="fill:#333E48;"
   d="M343.61,50.439c-16.964,9.549-28.429,27.715-28.429,48.568c0,2.614,0.193,5.182,0.541,7.7h51.043 C366.766,84.764,357.922,64.89,343.61,50.439z"
   id="path82" /> <rect
   x="206.811"
   y="106.708"
   style="fill:#B36F0F;"
   width="159.954"
   height="13.447"
   id="rect84" /> </g> <g
   id="g96"> <path
   style="fill:#FFB648;"
   d="M190.108,279.735c-0.365-1.787-1.946-3.131-3.841-3.131h-5.485c-2.164,0-3.919,1.756-3.919,3.92 c0,2.167,1.755,3.922,3.919,3.922h1.564v6.97c0,2.166,1.756,3.921,3.921,3.921c2.166,0,3.921-1.755,3.921-3.921v-10.892 C190.188,280.255,190.16,279.991,190.108,279.735z"
   id="path88" /> <g
   id="g92"> <path
   style="fill:#FFB648;"
   d="M182.268,279.735c-0.366-1.787-1.947-3.131-3.841-3.131h-5.485c-2.166,0-3.921,1.756-3.921,3.92 c0,2.167,1.755,3.922,3.921,3.922h1.564v6.97c0,2.166,1.755,3.921,3.921,3.921c2.165,0,3.919-1.755,3.919-3.921v-10.892 C182.346,280.255,182.32,279.991,182.268,279.735z"
   id="path90" /> </g> <path
   style="fill:#FFB648;"
   d="M174.426,279.735c-0.366-1.787-1.946-3.131-3.842-3.131h-5.483c-2.166,0-3.921,1.756-3.921,3.92 c0,2.167,1.755,3.922,3.921,3.922h1.563v6.97c0,2.166,1.755,3.921,3.92,3.921c2.166,0,3.921-1.755,3.921-3.921v-10.892 C174.506,280.255,174.477,279.991,174.426,279.735z"
   id="path94" /> </g> <circle
   style="fill:#2D3740;"
   cx="176.863"
   cy="81.613"
   r="8.256"
   id="circle264" /></g> <g
   id="g1148"
   transform="translate(-3.2417841,-11.022066)"><g
     style="fill:#000000"
     id="g1113"
     transform="matrix(0.18809115,0,0,0.15979878,-44.672742,13.796504)"><g
       id="SVGRepo_bgCarrier-2"
       stroke-width="0" /><g
       id="SVGRepo_tracerCarrier-5"
       stroke-linecap="round"
       stroke-linejoin="round" /><g
       id="SVGRepo_iconCarrier-1"
       transform="matrix(0.89299861,-0.52974243,0.3823622,0.89299861,-79.032336,325.78487)"><path
         d="M 715.72041,207.5221 C 675.90254,136.26685 603.80361,95.397443 518.01533,95.397443 c -129.59419,0 -205.28799,72.306777 -238.68201,195.401347 -20.88521,76.84567 110.97689,131.61841 140.38594,27.17392 15.79241,-56.02803 37.09946,-79.49958 98.29607,-79.49958 33.88343,0 58.47511,13.1344 72.86479,38.91276 15.64907,28.01453 14.18286,62.38431 3.63377,79.57125 -17.11936,27.87425 -35.48991,44.01376 -56.72939,62.66383 -44.43252,39.05201 -99.61994,88.86403 -99.61994,221.8094 0,70.48938 71.53784,71.53784 71.53784,71.53784 39.47078,0 71.53784,-32.06706 71.53784,-71.53784 0,-69.5812 14.88013,-82.64393 50.85639,-114.22465 25.01352,-21.93367 55.96045,-49.11066 84.32515,-95.35956 39.6776,-64.69112 39.3991,-152.71454 -0.70137,-224.32406 z"
         fill="#27323a"
         id="path1091" /><path
         d="m 670.72987,403.76406 c -24.24049,39.3991 -50.64854,62.59523 -73.98083,83.13437 -40.17214,35.21039 -69.16243,60.71025 -69.16243,154.53194 0,9.8508 -7.96583,17.8842 -17.88421,17.8842 -9.8508,0 -17.8842,-8.0334 -17.8842,-17.8842 0,-110.03184 39.47078,-144.68114 81.31697,-181.43043 22.49476,-19.76918 45.75948,-40.16805 67.06654,-74.9607 22.35551,-36.32642 21.30705,-91.37459 -2.51467,-133.85048 -23.89338,-42.75847 -66.43684,-66.36927 -119.67171,-66.36927 -86.76814,0 -134.76277,39.12061 -150.96985,123.0229 -1.88497,9.71155 -11.21359,16.0709 -20.92514,14.18285 -9.71155,-1.88497 -16.06783,-11.24533 -14.18184,-20.95688 19.49376,-100.87933 82.05417,-152.01728 186.07683,-152.01728 66.78804,0 120.36898,30.11042 150.89817,84.67225 30.32134,54.07138 31.0186,122.3932 1.81637,170.04073 z"
         fill="#ffcc66"
         id="path1093" /><path
         d="m 513.19385,757.12122 c -47.43354,0 -85.85995,38.42334 -85.85995,85.85995 0,47.43354 38.42641,85.85995 85.85995,85.85995 47.36493,0 85.79135,-38.42641 85.79135,-85.85995 0,-47.43661 -38.42641,-85.85995 -85.79135,-85.85995 z"
         fill="#27323a"
         id="path1095" /><path
         d="m 513.19385,875.18748 c -17.81253,0 -32.20631,-14.39378 -32.20631,-32.20631 0,-17.74496 14.39378,-32.20631 32.20631,-32.20631 17.74496,0 32.13874,14.46135 32.13874,32.20631 -10e-4,17.81253 -14.39378,32.20631 -32.13874,32.20631 z"
         fill="#fe6865"
         id="path1097" /></g></g><g
     id="g1133"
     transform="matrix(0.18462408,0.03594553,-0.03053877,0.15685377,40.687589,-19.680803)"><path
       d="M 715.72041,207.5221 C 675.90254,136.26685 603.80361,95.397443 518.01533,95.397443 c -129.59419,0 -205.28799,72.306777 -238.68201,195.401347 -20.88521,76.84567 110.97689,131.61841 140.38594,27.17392 15.79241,-56.02803 37.09946,-79.49958 98.29607,-79.49958 33.88343,0 58.47511,13.1344 72.86479,38.91276 15.64907,28.01453 14.18286,62.38431 3.63377,79.57125 -17.11936,27.87425 -35.48991,44.01376 -56.72939,62.66383 -44.43252,39.05201 -99.61994,88.86403 -99.61994,221.8094 0,70.48938 71.53784,71.53784 71.53784,71.53784 39.47078,0 71.53784,-32.06706 71.53784,-71.53784 0,-69.5812 14.88013,-82.64393 50.85639,-114.22465 25.01352,-21.93367 55.96045,-49.11066 84.32515,-95.35956 39.6776,-64.69112 39.3991,-152.71454 -0.70137,-224.32406 z"
       fill="#27323a"
       id="path1115" /><path
       d="m 670.72987,403.76406 c -24.24049,39.3991 -50.64854,62.59523 -73.98083,83.13437 -40.17214,35.21039 -69.16243,60.71025 -69.16243,154.53194 0,9.8508 -7.96583,17.8842 -17.88421,17.8842 -9.8508,0 -17.8842,-8.0334 -17.8842,-17.8842 0,-110.03184 39.47078,-144.68114 81.31697,-181.43043 22.49476,-19.76918 45.75948,-40.16805 67.06654,-74.9607 22.35551,-36.32642 21.30705,-91.37459 -2.51467,-133.85048 -23.89338,-42.75847 -66.43684,-66.36927 -119.67171,-66.36927 -86.76814,0 -134.76277,39.12061 -150.96985,123.0229 -1.88497,9.71155 -11.21359,16.0709 -20.92514,14.18285 -9.71155,-1.88497 -16.06783,-11.24533 -14.18184,-20.95688 19.49376,-100.87933 82.05417,-152.01728 186.07683,-152.01728 66.78804,0 120.36898,30.11042 150.89817,84.67225 30.32134,54.07138 31.0186,122.3932 1.81637,170.04073 z"
       fill="#f4ce73"
       id="path1117" /><path
       d="m 513.19385,757.12122 c -47.43354,0 -85.85995,38.42334 -85.85995,85.85995 0,47.43354 38.42641,85.85995 85.85995,85.85995 47.36493,0 85.79135,-38.42641 85.79135,-85.85995 0,-47.43661 -38.42641,-85.85995 -85.79135,-85.85995 z"
       fill="#27323a"
       id="path1119" /><path
       d="m 513.19385,875.18748 c -17.81253,0 -32.20631,-14.39378 -32.20631,-32.20631 0,-17.74496 14.39378,-32.20631 32.20631,-32.20631 17.74496,0 32.13874,14.46135 32.13874,32.20631 -10e-4,17.81253 -14.39378,32.20631 -32.13874,32.20631 z"
       fill="#79ccbf"
       id="path1121" /></g></g></g>

</svg>
