<svg id="visual" viewBox="0 0 1920 1080" width="1920" height="1080" xmlns="http://www.w3.org/2000/svg" xmlns:xlink="http://www.w3.org/1999/xlink" version="1.1"><rect x="0" y="0" width="1920" height="1080" fill="#0f172a"></rect><path d="M0 506L35.5 533.5C71 561 142 616 213.2 625.5C284.3 635 355.7 599 426.8 560.2C498 521.3 569 479.7 640 470.5C711 461.3 782 484.7 853.2 490.5C924.3 496.3 995.7 484.7 1066.8 484.7C1138 484.7 1209 496.3 1280 520.3C1351 544.3 1422 580.7 1493.2 596.3C1564.3 612 1635.7 607 1706.8 610.2C1778 613.3 1849 624.7 1884.5 630.3L1920 636L1920 1081L1884.5 1081C1849 1081 1778 1081 1706.8 1081C1635.7 1081 1564.3 1081 1493.2 1081C1422 1081 1351 1081 1280 1081C1209 1081 1138 1081 1066.8 1081C995.7 1081 924.3 1081 853.2 1081C782 1081 711 1081 640 1081C569 1081 498 1081 426.8 1081C355.7 1081 284.3 1081 213.2 1081C142 1081 71 1081 35.5 1081L0 1081Z" fill="#16a34a"></path><path d="M0 596L35.5 578.8C71 561.7 142 527.3 213.2 549.8C284.3 572.3 355.7 651.7 426.8 693.8C498 736 569 741 640 740C711 739 782 732 853.2 713.5C924.3 695 995.7 665 1066.8 666.8C1138 668.7 1209 702.3 1280 690.7C1351 679 1422 622 1493.2 587.8C1564.3 553.7 1635.7 542.3 1706.8 530.8C1778 519.3 1849 507.7 1884.5 501.8L1920 496L1920 1081L1884.5 1081C1849 1081 1778 1081 1706.8 1081C1635.7 1081 1564.3 1081 1493.2 1081C1422 1081 1351 1081 1280 1081C1209 1081 1138 1081 1066.8 1081C995.7 1081 924.3 1081 853.2 1081C782 1081 711 1081 640 1081C569 1081 498 1081 426.8 1081C355.7 1081 284.3 1081 213.2 1081C142 1081 71 1081 35.5 1081L0 1081Z" fill="#06954c"></path><path d="M0 625L35.5 647.8C71 670.7 142 716.3 213.2 725.3C284.3 734.3 355.7 706.7 426.8 694.2C498 681.7 569 684.3 640 694.5C711 704.7 782 722.3 853.2 737.8C924.3 753.3 995.7 766.7 1066.8 760.2C1138 753.7 1209 727.3 1280 703.7C1351 680 1422 659 1493.2 644C1564.3 629 1635.7 620 1706.8 633.7C1778 647.3 1849 683.7 1884.5 701.8L1920 720L1920 1081L1884.5 1081C1849 1081 1778 1081 1706.8 1081C1635.7 1081 1564.3 1081 1493.2 1081C1422 1081 1351 1081 1280 1081C1209 1081 1138 1081 1066.8 1081C995.7 1081 924.3 1081 853.2 1081C782 1081 711 1081 640 1081C569 1081 498 1081 426.8 1081C355.7 1081 284.3 1081 213.2 1081C142 1081 71 1081 35.5 1081L0 1081Z" fill="#00884d"></path><path d="M0 882L35.5 866.2C71 850.3 142 818.7 213.2 798.8C284.3 779 355.7 771 426.8 778.8C498 786.7 569 810.3 640 801.8C711 793.3 782 752.7 853.2 750C924.3 747.3 995.7 782.7 1066.8 785.5C1138 788.3 1209 758.7 1280 763C1351 767.3 1422 805.7 1493.2 812.5C1564.3 819.3 1635.7 794.7 1706.8 772.7C1778 750.7 1849 731.3 1884.5 721.7L1920 712L1920 1081L1884.5 1081C1849 1081 1778 1081 1706.8 1081C1635.7 1081 1564.3 1081 1493.2 1081C1422 1081 1351 1081 1280 1081C1209 1081 1138 1081 1066.8 1081C995.7 1081 924.3 1081 853.2 1081C782 1081 711 1081 640 1081C569 1081 498 1081 426.8 1081C355.7 1081 284.3 1081 213.2 1081C142 1081 71 1081 35.5 1081L0 1081Z" fill="#007a4c"></path><path d="M0 850L35.5 859.5C71 869 142 888 213.2 886.7C284.3 885.3 355.7 863.7 426.8 871.7C498 879.7 569 917.3 640 912.7C711 908 782 861 853.2 848.7C924.3 836.3 995.7 858.7 1066.8 877.8C1138 897 1209 913 1280 908.8C1351 904.7 1422 880.3 1493.2 881.5C1564.3 882.7 1635.7 909.3 1706.8 913.7C1778 918 1849 900 1884.5 891L1920 882L1920 1081L1884.5 1081C1849 1081 1778 1081 1706.8 1081C1635.7 1081 1564.3 1081 1493.2 1081C1422 1081 1351 1081 1280 1081C1209 1081 1138 1081 1066.8 1081C995.7 1081 924.3 1081 853.2 1081C782 1081 711 1081 640 1081C569 1081 498 1081 426.8 1081C355.7 1081 284.3 1081 213.2 1081C142 1081 71 1081 35.5 1081L0 1081Z" fill="#006d4a"></path><path d="M0 918L35.5 923.5C71 929 142 940 213.2 958.7C284.3 977.3 355.7 1003.7 426.8 1011.2C498 1018.7 569 1007.3 640 988.8C711 970.3 782 944.7 853.2 944.5C924.3 944.3 995.7 969.7 1066.8 974.3C1138 979 1209 963 1280 958.8C1351 954.7 1422 962.3 1493.2 957.3C1564.3 952.3 1635.7 934.7 1706.8 944C1778 953.3 1849 989.7 1884.5 1007.8L1920 1026L1920 1081L1884.5 1081C1849 1081 1778 1081 1706.8 1081C1635.7 1081 1564.3 1081 1493.2 1081C1422 1081 1351 1081 1280 1081C1209 1081 1138 1081 1066.8 1081C995.7 1081 924.3 1081 853.2 1081C782 1081 711 1081 640 1081C569 1081 498 1081 426.8 1081C355.7 1081 284.3 1081 213.2 1081C142 1081 71 1081 35.5 1081L0 1081Z" fill="#065f46"></path></svg>